<?xml version="1.0" standalone="no"?>
<!DOCTYPE svg PUBLIC "-//W3C//DTD SVG 1.1//EN" "http://www.w3.org/Graphics/SVG/1.1/DTD/svg11.dtd" >
<svg xmlns="http://www.w3.org/2000/svg" xmlns:xlink="http://www.w3.org/1999/xlink" version="1.1">
<metadata>
Created by FontForge 20170731 at Mon Apr 30 13:17:16 2007
 By ,,,
Copyright \(c\) 1998 Elsner+Flake Designstudios. All Rights Reserved.
</metadata>
<defs>
<font id="FuturaEF-Heavy" horiz-adv-x="500" >
  <font-face 
    font-family="FuturaEF Heavy"
    font-weight="500"
    font-stretch="normal"
    units-per-em="1000"
    panose-1="0 0 0 0 0 0 0 0 0 0"
    ascent="800"
    descent="-200"
    x-height="423"
    cap-height="667"
    bbox="-100 -250 998 929"
    underline-thickness="115"
    underline-position="-332"
    unicode-range="U+0020-FB02"
  />
<missing-glyph horiz-adv-x="537" 
d="M517 363q0 -57 -24 -106.5t-69 -77.5q-18 -11 -38 -18t-46.5 -9.5t-41.5 -3t-48.5 0t-42.5 0.5v-149h-130v667h130v-94h52q110 0 161 -30q47 -27 72 -75t25 -105zM372 363q0 90 -117 90h-48v-183h57q108 0 108 93z" />
    <glyph glyph-name=".notdef" horiz-adv-x="537" 
d="M517 363q0 -57 -24 -106.5t-69 -77.5q-18 -11 -38 -18t-46.5 -9.5t-41.5 -3t-48.5 0t-42.5 0.5v-149h-130v667h130v-94h52q110 0 161 -30q47 -27 72 -75t25 -105zM372 363q0 90 -117 90h-48v-183h57q108 0 108 93z" />
    <glyph glyph-name=".null" horiz-adv-x="0" 
 />
    <glyph glyph-name="nonmarkingreturn" horiz-adv-x="333" 
 />
    <glyph glyph-name="space" unicode=" " horiz-adv-x="250" 
 />
    <glyph glyph-name="exclam" unicode="!" horiz-adv-x="311" 
d="M223 207h-135v460h135v-460zM237 68q0 -34 -24 -58t-58 -24t-58 24t-24 58t24 58t58 24t58 -24t24 -58z" />
    <glyph glyph-name="quotedbl" unicode="&#x22;" horiz-adv-x="410" 
d="M369 667l-24 -268h-94l-24 268h142zM183 667l-24 -268h-94l-24 268h142z" />
    <glyph glyph-name="numbersign" unicode="#" horiz-adv-x="600" 
d="M605 498l-18 -116h-100l-13 -84h102l-18 -115h-102l-29 -183h-132l30 183h-86l-30 -183h-130l30 183h-102l18 115h101l14 84h-101l18 116h100l28 169h130l-27 -169h85l28 169h131l-27 -169h100zM356 382h-86l-14 -84h86z" />
    <glyph glyph-name="dollar" unicode="$" horiz-adv-x="567" 
d="M507 198q0 -78 -46 -131.5t-124 -67.5v-85h-95v86q-105 11 -181 86l74 100q83 -73 151 -73q37 0 63 21t26 58q0 18 -6 30.5t-19 22t-23.5 14t-29.5 11.5q-4 1 -31 10.5t-33 12t-29.5 12t-31 14t-26 15.5t-25 19.5t-18.5 22.5t-16.5 27.5t-8.5 31.5t-4 38q0 76 46 125.5
t122 65.5v83h95v-83q85 -9 148 -80l-79 -94q-56 67 -116 67q-34 0 -59 -20.5t-25 -53.5q0 -19 8 -32q10 -17 44.5 -31.5t75 -28t80.5 -34.5t66.5 -61.5t26.5 -97.5z" />
    <glyph glyph-name="percent" unicode="%" horiz-adv-x="643" 
d="M603 168q0 -85 -18 -121q-12 -26 -37 -40t-54 -14q-64 0 -92 54q-18 36 -18 121q0 28 1.5 48.5t8 45.5t18 40.5t32.5 26.5t50 11q58 0 86 -45q23 -36 23 -127zM480 667l-263 -667h-54l266 667h51zM259 501q0 -85 -18 -120q-28 -54 -91 -54q-29 0 -50 11t-32.5 27
t-18 41.5t-8 46t-1.5 48.5t1.5 48.5t8 45.5t18 40.5t32.5 26.5t50 11q58 0 86 -45q23 -36 23 -127zM532 171v15v20t-1 19.5t-3.5 21t-6.5 16t-11 12.5t-16 4t-16 -4t-11.5 -13t-7 -16t-3.5 -21.5t-1 -20v-20.5v-15q0 -92 17 -107q9 -8 22 -8t21 8q17 15 17 109zM188 504v15
v20t-1 19.5t-3.5 21t-6.5 16.5t-11 13t-16 4t-16 -4t-11.5 -13t-7 -16.5t-3.5 -22t-1 -20v-20.5v-15q0 -92 17 -107q9 -8 22 -8t21 8q17 15 17 109z" />
    <glyph glyph-name="ampersand" unicode="&#x26;" horiz-adv-x="672" 
d="M666 0h-166l-60 70q-50 -42 -88 -62t-91 -20q-86 0 -147 51t-61 135q0 62 32.5 107t94.5 95q-59 70 -59 138q0 70 53.5 111.5t125.5 41.5q69 0 118 -38.5t49 -105.5q0 -28 -8.5 -51.5t-27 -45t-33.5 -34.5t-42 -35l98 -113l92 106l84 -90l-99 -105zM348 524
q0 23 -14.5 38.5t-37.5 15.5q-25 0 -41 -18.5t-16 -43.5q0 -37 45 -78q64 34 64 86zM367 152l-118 135q-3 -3 -21 -18.5t-24.5 -22.5t-14 -22t-7.5 -30q0 -34 27 -62.5t60 -28.5q43 0 98 49z" />
    <glyph glyph-name="quotesingle" unicode="'" horiz-adv-x="224" 
d="M183 667l-24 -268h-94l-24 268h142z" />
    <glyph glyph-name="parenleft" unicode="(" horiz-adv-x="323" 
d="M273 -137l-82 -35q-66 113 -95 218t-29 235q0 254 125 467l81 -37q-44 -112 -64.5 -207.5t-20.5 -206.5q0 -242 85 -434z" />
    <glyph glyph-name="parenright" unicode=")" horiz-adv-x="323" 
d="M257 295q0 -251 -125 -467l-82 36q40 104 51 143q34 120 34 272q0 241 -85 433l82 36q65 -110 95 -218t30 -235z" />
    <glyph glyph-name="asterisk" unicode="*" horiz-adv-x="567" 
d="M460 565q-77 -25 -134 -20q47 -28 97 -95l-79 -57q-47 62 -61 121q-4 -23 -15 -46.5t-18 -34.5t-27 -41l-79 57q49 68 96 96q-18 -2 -27 -2q-38 0 -106 22l30 92q79 -26 120 -61q-22 47 -22 133h97q0 -82 -22 -133q39 34 120 62z" />
    <glyph glyph-name="plus" unicode="+" 
d="M467 281h-153v-154h-128v154h-153v118h153v154h128v-154h153v-118z" />
    <glyph glyph-name="comma" unicode="," horiz-adv-x="276" 
d="M217 136l-101 -265h-84l47 265h138z" />
    <glyph glyph-name="hyphen" unicode="-" horiz-adv-x="207" 
d="M207 167h-207v116h207v-116z" />
    <glyph glyph-name="period" unicode="." horiz-adv-x="276" 
d="M220 68q0 -34 -24 -58t-58 -24t-58 24t-24 58t24 58t58 24t58 -24t24 -58z" />
    <glyph glyph-name="slash" unicode="/" horiz-adv-x="502" 
d="M492 729l-357 -896h-112l357 896h112z" />
    <glyph glyph-name="zero" unicode="0" horiz-adv-x="567" 
d="M496 336q0 -171 -35 -242q-25 -52 -72 -79.5t-106 -27.5q-58 0 -105 28t-72 79q-35 70 -35 242q0 93 11 155q15 87 65.5 138t135.5 51q51 0 96.5 -23.5t71.5 -65.5q45 -73 45 -255zM362 356q0 46 -3 92q-3 33 -7 54t-21.5 42t-47.5 21q-18 0 -31.5 -8t-21 -19t-12.5 -29
t-6.5 -30.5t-3.5 -31.5q-3 -46 -3 -94q0 -159 16 -203q18 -48 62 -48q45 0 63 48q16 45 16 206z" />
    <glyph glyph-name="one" unicode="1" horiz-adv-x="567" 
d="M381 0h-137v549h-112v118h249v-667z" />
    <glyph glyph-name="two" unicode="2" horiz-adv-x="567" 
d="M492 0h-417v53q59 68 119 143q94 118 125 174q38 67 38 112q0 34 -19.5 58.5t-52.5 24.5q-21 0 -39.5 -12.5t-26.5 -31.5q-9 -20 -9 -70h-130v14q0 69 20 112q24 52 75.5 77.5t114.5 25.5q89 0 144.5 -52.5t55.5 -140.5q0 -87 -64.5 -184.5t-149.5 -179.5h216v-123z" />
    <glyph glyph-name="three" unicode="3" horiz-adv-x="567" 
d="M492 185q0 -89 -62 -143.5t-153 -54.5q-108 0 -165 70q-23 28 -30 56.5t-7 73.5h133q2 -85 71 -85q39 0 59 25t20 66q0 28 -6.5 46.5t-16 28t-28.5 14.5t-34 6t-44 1v123q54 0 85 16.5t31 65.5q0 30 -16.5 50.5t-46.5 20.5q-31 0 -46.5 -19.5t-16.5 -50.5h-132
q5 45 15 73.5t36 56.5q51 55 144 55q86 0 141 -43t55 -126q0 -113 -111 -156q125 -41 125 -170z" />
    <glyph glyph-name="four" unicode="4" horiz-adv-x="567" 
d="M492 121h-54v-121h-134v121h-229v116l236 430h127v-443h54v-103zM319 507l-160 -283h145v33v39q0 130 15 211z" />
    <glyph glyph-name="five" unicode="5" horiz-adv-x="567" 
d="M488 227q0 -103 -69 -171.5t-172 -68.5q-84 0 -168 46l24 148q58 -76 135 -76q49 0 82.5 32t33.5 80q0 50 -33 79t-84 29q-58 0 -110 -35l-30 23l71 354h313v-118h-210l-23 -120q24 6 49 6q85 0 138 -61t53 -147z" />
    <glyph glyph-name="six" unicode="6" horiz-adv-x="567" 
d="M499 205q0 -98 -59.5 -158t-157.5 -60q-100 0 -157.5 62.5t-57.5 163.5q0 23 4 48t8.5 46.5t15.5 49.5t18 46t23.5 48.5t23.5 44.5t27 46.5t26 42t28 43.5t25 39h158q-39 -52 -98 -149q-12 -20 -38 -60t-38 -60q30 12 63 12q85 0 135.5 -59t50.5 -146zM366 196
q0 41 -21 73t-61 32t-61.5 -32.5t-21.5 -74.5q0 -41 21.5 -70t61.5 -29t61 30t21 71z" />
    <glyph glyph-name="seven" unicode="7" horiz-adv-x="567" 
d="M503 625l-276 -656l-121 59l224 521h-253v118h426v-42z" />
    <glyph glyph-name="eight" unicode="8" horiz-adv-x="567" 
d="M494 188q0 -88 -59.5 -144.5t-148.5 -56.5q-92 0 -152.5 53.5t-60.5 144.5q0 60 30.5 105t86.5 60q-52 13 -80.5 53t-28.5 95q0 82 58 132t141 50q84 0 141 -48.5t57 -130.5q0 -54 -26.5 -94t-76.5 -57q58 -12 88.5 -56.5t30.5 -105.5zM356 483q0 37 -20.5 63.5
t-56.5 26.5t-56 -25.5t-20 -62.5t20.5 -62t56.5 -25q34 0 55 25t21 60zM361 195q0 38 -21 64.5t-58 26.5t-56.5 -27.5t-19.5 -66.5t19.5 -65.5t56.5 -26.5t58 28.5t21 66.5z" />
    <glyph glyph-name="nine" unicode="9" horiz-adv-x="567" 
d="M499 454q0 -53 -17 -109t-34.5 -90.5t-53.5 -96.5q-62 -106 -93 -158h-158q28 37 56.5 80.5t65 104t52.5 84.5q-30 -12 -64 -12q-85 0 -135.5 59t-50.5 146q0 98 60 158t158 60q100 0 157 -62.5t57 -163.5zM366 473q0 40 -22 69t-61 29q-40 0 -61 -29t-21 -71
q0 -41 21 -73.5t61 -32.5t61.5 33t21.5 75z" />
    <glyph glyph-name="colon" unicode=":" horiz-adv-x="276" 
d="M220 353q0 -34 -24 -58t-58 -24t-58 24t-24 58t24 58t58 24t58 -24t24 -58zM220 68q0 -34 -24 -58t-58 -24t-58 24t-24 58t24 58t58 24t58 -24t24 -58z" />
    <glyph glyph-name="semicolon" unicode=";" horiz-adv-x="276" 
d="M240 353q0 -34 -24 -58t-58 -24t-58 24t-24 58t24 58t58 24t58 -24t24 -58zM217 136l-101 -265h-84l47 265h138z" />
    <glyph glyph-name="less" unicode="&#x3c;" 
d="M467 59l-434 221v108l434 220v-127l-298 -148l297 -147z" />
    <glyph glyph-name="equal" unicode="=" 
d="M467 370h-434v112h434v-112zM467 198h-434v112h434v-112z" />
    <glyph glyph-name="greater" unicode="&#x3e;" 
d="M467 280l-434 -221v128l298 147l-297 148l-1 126l434 -221v-107z" />
    <glyph glyph-name="question" unicode="?" horiz-adv-x="493" 
d="M447 485q0 -70 -36 -120.5t-104 -59.5v-98h-132v180q64 0 95.5 19.5t31.5 79.5q0 31 -16 53t-46 22q-58 0 -62 -87h-131q10 209 199 209q91 0 146 -53.5t55 -144.5zM323 68q0 -34 -24 -58t-58 -24t-58 24t-24 58t24 58t58 24t58 -24t24 -58z" />
    <glyph glyph-name="at" unicode="@" horiz-adv-x="733" 
d="M700 384q0 -50 -17 -98q-20 -53 -58.5 -92.5t-88.5 -39.5q-26 0 -48.5 14.5t-29.5 39.5q-44 -63 -124 -63q-62 0 -101.5 47t-39.5 110q0 76 50.5 138t124.5 62q64 0 98 -49l7 39l88 -1l-37 -190q-7 -33 -7 -42q0 -33 23 -33q12 0 25 9q28 21 43 64.5t15 84.5
q0 98 -67 156.5t-167 58.5q-114 0 -192 -79.5t-78 -193.5q0 -115 74 -189q69 -70 196 -70q89 0 181 30l20 -79q-91 -30 -199 -30q-78 0 -141 21q-99 34 -158 123.5t-59 195.5q0 147 102.5 248.5t249.5 101.5q132 0 223.5 -82t91.5 -212zM443 345q0 27 -18 46t-45 19
q-38 0 -62.5 -32.5t-24.5 -71.5q0 -30 17.5 -50.5t47.5 -20.5q39 0 62 34.5t23 75.5z" />
    <glyph glyph-name="A" unicode="A" horiz-adv-x="605" 
d="M609 0h-146l-44 145h-230l-46 -145h-147l233 667h148zM379 257l-53 166q-16 49 -23 95q-5 -32 -14.5 -68.5t-17 -62t-22 -68t-20.5 -62.5h150z" />
    <glyph glyph-name="B" unicode="B" horiz-adv-x="570" 
d="M532 193q0 -95 -53 -148q-44 -45 -136 -45h-275v667h253q82 0 131 -46.5t49 -128.5q0 -83 -70 -131q101 -51 101 -168zM360 479q0 37 -25 58t-63 21h-59v-157h59q38 0 63 20.5t25 57.5zM391 206q0 42 -26 64.5t-69 22.5h-83v-178h87q41 0 66 25t25 66z" />
    <glyph glyph-name="C" unicode="C" horiz-adv-x="621" 
d="M583 45q-101 -62 -200 -62q-148 0 -246.5 98.5t-98.5 247.5q0 153 104 253.5t257 100.5q102 0 184 -51v-172q-83 97 -182 97q-90 0 -153 -67t-63 -157t63 -156.5t153 -66.5q104 0 182 99v-164z" />
    <glyph glyph-name="D" unicode="D" horiz-adv-x="661" 
d="M623 334q0 -84 -35.5 -161t-102.5 -120q-83 -53 -216 -53h-201v667h206q129 0 201 -41q71 -42 109.5 -123t38.5 -169zM476 332q0 92 -53.5 152.5t-144.5 60.5h-65v-424h63q93 0 146.5 59t53.5 152z" />
    <glyph glyph-name="E" unicode="E" horiz-adv-x="482" 
d="M444 0h-376v667h376v-122h-231v-142h231v-122h-231v-160h231v-121z" />
    <glyph glyph-name="F" unicode="F" horiz-adv-x="456" 
d="M426 285h-213v-285h-145v667h358v-122h-213v-139h213v-121z" />
    <glyph glyph-name="G" unicode="G" horiz-adv-x="768" 
d="M730 351q-1 -165 -89 -266.5t-250 -101.5q-154 0 -253.5 97t-99.5 251q0 157 102 254.5t259 97.5q91 0 159.5 -35.5t126.5 -108.5l-105 -87q-68 105 -187 105q-92 0 -150 -65.5t-58 -158.5q0 -95 59.5 -159t154.5 -64q122 0 180 120h-142v121h293z" />
    <glyph glyph-name="H" unicode="H" horiz-adv-x="674" 
d="M606 0h-145v293h-248v-293h-145v667h145v-253h248v253h145v-667z" />
    <glyph glyph-name="I" unicode="I" horiz-adv-x="281" 
d="M213 0h-145v667h145v-667z" />
    <glyph glyph-name="J" unicode="J" horiz-adv-x="388" 
d="M320 175q0 -88 -42.5 -140t-128.5 -52q-60 0 -103.5 31.5t-60.5 89.5l114 91q7 -85 42 -85q34 0 34 63v494h145v-492z" />
    <glyph glyph-name="K" unicode="K" horiz-adv-x="565" 
d="M563 0h-181l-169 288v-288h-145v667h145v-252l169 252h180l-232 -303z" />
    <glyph glyph-name="L" unicode="L" horiz-adv-x="415" 
d="M403 0h-335v667h145v-546h190v-121z" />
    <glyph glyph-name="M" unicode="M" horiz-adv-x="843" 
d="M797 0h-140l-43 369q-4 42 -6 84q-4 -13 -10 -36.5t-11.5 -42.5t-11.5 -35l-116 -339h-79l-114 347q-20 63 -27 106q-8 -99 -53 -453h-140l96 667h149l104 -333q14 -45 25 -100q8 33 28 97l109 336h149z" />
    <glyph glyph-name="N" unicode="N" horiz-adv-x="749" 
d="M681 0h-141l-292 390q-23 31 -39 58q4 -70 4 -105v-343h-145v667h142l291 -401q34 -48 39 -56q0 10 -1 28t-1.5 33t-0.5 28v368h144v-667z" />
    <glyph glyph-name="O" unicode="O" horiz-adv-x="790" 
d="M752 335q0 -150 -102 -251t-252 -101q-153 0 -256.5 100t-103.5 252q0 150 102.5 249t253.5 99q153 0 255.5 -98t102.5 -250zM605 336q0 89 -60 155t-148 66q-90 0 -151 -66.5t-61 -157.5q0 -90 60 -156.5t149 -66.5t150 68t61 158z" />
    <glyph glyph-name="P" unicode="P" horiz-adv-x="487" 
d="M469 469q0 -98 -62.5 -158t-161.5 -60h-32v-251h-145v667h204q88 0 142.5 -54.5t54.5 -143.5zM327 461q0 40 -25 62t-66 22h-23v-173h22q39 0 65.5 25t26.5 64z" />
    <glyph glyph-name="Q" unicode="Q" horiz-adv-x="790" 
d="M752 335q0 -80 -33 -151.5t-94 -122.5l89 -110l-99 -72l-84 128q-59 -24 -132 -24q-153 0 -257 100t-104 252q0 150 102.5 249t252.5 99q154 0 256.5 -97.5t102.5 -250.5zM605 336q0 89 -60.5 155t-148.5 66q-90 0 -150.5 -66.5t-60.5 -157.5t60 -157t150 -66q23 0 46 6
l-74 83l115 36l52 -67q71 73 71 168z" />
    <glyph glyph-name="R" unicode="R" horiz-adv-x="549" 
d="M526 0h-166l-147 289v-289h-145v667h206q92 0 149.5 -52t57.5 -143q0 -65 -32.5 -109t-95.5 -59zM339 466q0 44 -35 66q-20 13 -60 13h-31v-162h21q105 0 105 83z" />
    <glyph glyph-name="S" unicode="S" horiz-adv-x="497" 
d="M465 197q0 -95 -66.5 -154.5t-162.5 -59.5q-58 0 -112 26.5t-91 72.5l85 118q48 -90 117 -90q35 0 61 23.5t26 58.5q0 32 -28 55q-12 10 -72 36q-79 35 -121.5 79.5t-42.5 118.5q0 89 64.5 145.5t154.5 56.5q112 0 184 -87l-93 -110q-22 34 -43 52.5t-53 18.5
q-29 0 -50 -18.5t-21 -47.5q0 -32 27 -53.5t66 -37.5t78 -37t66 -63t27 -103z" />
    <glyph glyph-name="T" unicode="T" horiz-adv-x="427" 
d="M426 545h-141v-545h-145v545h-139v122h425v-122z" />
    <glyph glyph-name="U" unicode="U" horiz-adv-x="651" 
d="M583 248q0 -122 -69.5 -193.5t-190.5 -71.5q-60 0 -118.5 22.5t-91.5 65.5q-45 58 -45 165v431h145v-427q0 -64 23 -92q30 -38 89 -38q53 0 83 34.5t30 87.5v435h145v-419z" />
    <glyph glyph-name="V" unicode="V" horiz-adv-x="565" 
d="M569 667l-213 -667h-140l-220 667h149l111 -373q17 -57 28 -125q9 52 33 135l105 363h147z" />
    <glyph glyph-name="W" unicode="W" horiz-adv-x="932" 
d="M936 667l-196 -667h-132l-115 382q-18 61 -28 133q-7 -61 -28 -133l-110 -382h-132l-199 667h151l102 -401q4 -16 17 -106q7 65 19 106l115 401h126l131 -432q14 -48 16 -75q6 66 14 100l99 407h150z" />
    <glyph glyph-name="X" unicode="X" horiz-adv-x="529" 
d="M527 0h-163l-68 141q-23 50 -34 85q-22 -61 -97 -226h-164l179 341l-179 326h164q68 -144 95 -219q3 7 21 52.5t29 69.5l45 97h164l-172 -324z" />
    <glyph glyph-name="Y" unicode="Y" horiz-adv-x="516" 
d="M527 667l-192 -357v-310h-144v305l-202 362h160q5 -10 28.5 -54t33 -62.5t25.5 -52.5t27 -63q6 19 40 93l65 139h159z" />
    <glyph glyph-name="Z" unicode="Z" horiz-adv-x="536" 
d="M515 0h-490v42l275 503h-259v122h463v-33l-279 -513h290v-121z" />
    <glyph glyph-name="bracketleft" unicode="[" horiz-adv-x="339" 
d="M289 -167h-206v896h206v-86h-84v-723h84v-87z" />
    <glyph glyph-name="backslash" unicode="\" 
d="M457 -83h-125l-305 833h125z" />
    <glyph glyph-name="bracketright" unicode="]" horiz-adv-x="339" 
d="M255 -167h-205v87h83v723h-83v86h205v-896z" />
    <glyph glyph-name="asciicircum" unicode="^" 
d="M495 335h-134l-111 233l-111 -233h-134l161 335h168z" />
    <glyph glyph-name="underscore" unicode="_" 
d="M500 -162h-500v115h500v-115z" />
    <glyph glyph-name="grave" unicode="`" 
d="M309 530l-73 -45l-138 137l102 67z" />
    <glyph glyph-name="a" unicode="a" horiz-adv-x="531" 
d="M473 0h-130v66q-37 -78 -129 -78q-87 0 -133 65.5t-46 155.5t47 158t133 68q89 0 128 -78v66h130v-423zM348 211q0 45 -24 76.5t-67 31.5q-42 0 -65.5 -31t-23.5 -75t22.5 -76t65.5 -32t67.5 31t24.5 75z" />
    <glyph glyph-name="b" unicode="b" horiz-adv-x="533" 
d="M499 214q0 -92 -44 -159t-131 -67q-90 0 -137 69v-57h-129v729h129v-369q32 38 64 56.5t76 18.5q85 0 128.5 -66t43.5 -155zM365 209q0 45 -23.5 77.5t-66.5 32.5t-66.5 -32t-23.5 -77t23.5 -75t67.5 -30q45 0 67 29t22 75z" />
    <glyph glyph-name="c" unicode="c" horiz-adv-x="417" 
d="M383 18q-62 -30 -125 -30q-96 0 -159.5 64t-63.5 160t64.5 159.5t160.5 63.5q66 0 123 -27v-144q-39 55 -107 55q-45 0 -76.5 -30.5t-31.5 -75.5q0 -44 31.5 -76t75.5 -32q34 0 57.5 14.5t50.5 44.5v-146z" />
    <glyph glyph-name="d" unicode="d" horiz-adv-x="533" 
d="M475 0h-129v57q-46 -69 -137 -69q-59 0 -100 35t-57.5 84t-16.5 107q0 57 16.5 105t56.5 82t98 34q44 0 76 -18.5t64 -56.5v369h129v-729zM348 211q0 45 -23.5 76.5t-66.5 31.5t-66.5 -33t-23.5 -77q0 -46 22 -75t67 -29q44 0 67.5 30t23.5 76z" />
    <glyph glyph-name="e" unicode="e" horiz-adv-x="497" 
d="M462 181h-304q6 -85 86 -85q60 0 90 53l118 -47q-27 -49 -65 -75q-56 -39 -133 -39q-101 0 -160 60.5t-59 161.5q0 100 57 162.5t155 62.5q105 0 160 -64t55 -170v-20zM339 258q-7 36 -31 57t-60 21t-60.5 -21.5t-29.5 -56.5h181z" />
    <glyph glyph-name="f" unicode="f" horiz-adv-x="268" 
d="M267 313h-73v-313h-130v313h-58v110h58v157q0 70 31 111.5t99 41.5q32 0 73 -12v-120q-16 16 -33 16q-40 0 -40 -69v-125h73v-110z" />
    <glyph glyph-name="g" unicode="g" horiz-adv-x="532" 
d="M474 6q0 -100 -36 -150q-52 -71 -183 -71q-114 0 -166 56q-32 34 -37 99h141q19 -55 71 -55q42 0 64 30q17 23 17 71v70q-47 -67 -134 -67q-89 0 -132.5 64t-43.5 157t43 159t131 66q89 0 136 -81v69h129v-417zM349 210q0 45 -22 77t-66 32q-46 0 -69.5 -34t-23.5 -81
q0 -45 23 -76t66 -31q44 0 68 33t24 80z" />
    <glyph glyph-name="h" unicode="h" horiz-adv-x="502" 
d="M444 0h-129v246q0 81 -57 81q-36 0 -53.5 -26t-17.5 -64v-237h-129v729h129v-360q39 66 119 66q74 0 114 -54q24 -33 24 -91v-290z" />
    <glyph glyph-name="i" unicode="i" horiz-adv-x="245" 
d="M206 598q0 -34 -24.5 -58.5t-58.5 -24.5q-35 0 -59.5 24.5t-24.5 58.5t24.5 58.5t58.5 24.5q35 0 59.5 -24.5t24.5 -58.5zM187 0h-129v423h129v-423z" />
    <glyph glyph-name="j" unicode="j" horiz-adv-x="245" 
d="M206 598q0 -34 -24 -58.5t-59 -24.5t-59.5 24.5t-24.5 58.5t24.5 58.5t59.5 24.5t59 -24.5t24 -58.5zM187 -206h-129v629h129v-629z" />
    <glyph glyph-name="k" unicode="k" horiz-adv-x="469" 
d="M468 423l-157 -193l155 -230h-163l-116 195v-195h-129v729h129v-469l124 163h157z" />
    <glyph glyph-name="l" unicode="l" horiz-adv-x="245" 
d="M187 0h-129v729h129v-729z" />
    <glyph glyph-name="m" unicode="m" horiz-adv-x="736" 
d="M678 0h-129v251q0 68 -50 68q-33 0 -48.5 -25.5t-15.5 -61.5v-232h-130v256q0 63 -51 63q-67 0 -67 -89v-230h-129v423h127v-65q26 40 54 59t70 19q89 0 112 -85q15 27 32 44q41 40 106 40q119 0 119 -131v-304z" />
    <glyph glyph-name="n" unicode="n" horiz-adv-x="502" 
d="M444 0h-129v246q0 81 -57 81q-36 0 -53.5 -26t-17.5 -64v-237h-129v423h129v-54q39 66 119 66q74 0 114 -54q24 -33 24 -91v-290z" />
    <glyph glyph-name="o" unicode="o" horiz-adv-x="529" 
d="M495 209q0 -101 -65 -161t-167 -60q-99 0 -163.5 59.5t-64.5 157.5q0 99 66 164.5t165 65.5q98 0 163.5 -64t65.5 -162zM361 213q0 44 -26.5 75t-69.5 31q-44 0 -70.5 -31t-26.5 -75q0 -46 26 -77t71 -31t70.5 31t25.5 77z" />
    <glyph glyph-name="p" unicode="p" horiz-adv-x="534" 
d="M499 214q0 -92 -44 -159t-131 -67q-84 0 -137 73v-267h-129v629h129v-64q56 76 140 76q86 0 129 -65.5t43 -155.5zM366 210q0 46 -24 77.5t-69 31.5q-43 0 -65.5 -30.5t-22.5 -75.5q0 -46 23.5 -77t68.5 -31t67 29.5t22 75.5z" />
    <glyph glyph-name="q" unicode="q" horiz-adv-x="533" 
d="M475 -206h-129v267q-53 -73 -137 -73q-86 0 -130 67.5t-44 158.5q0 90 42.5 155.5t128.5 65.5q85 0 140 -76v64h129v-629zM349 213q0 45 -23 75.5t-66 30.5q-45 0 -68.5 -31.5t-23.5 -77.5t22 -75.5t67 -29.5t68.5 31t23.5 77z" />
    <glyph glyph-name="r" unicode="r" horiz-adv-x="333" 
d="M326 423l-15 -147q-34 17 -57 17q-22 0 -36.5 -10t-20.5 -29t-8 -34.5t-2 -38.5v-181h-129v423h124v-81q13 26 25 43.5t33.5 33.5t46.5 16q18 0 39 -12z" />
    <glyph glyph-name="s" unicode="s" horiz-adv-x="371" 
d="M349 349l-89 -49q-29 39 -59 39q-14 0 -25 -9t-11 -23t18.5 -25.5t45 -21.5t53 -24t45 -40.5t18.5 -63.5q0 -65 -46 -104.5t-112 -39.5q-112 0 -162 85l99 58q14 -22 27.5 -32.5t34.5 -10.5q15 0 26 9.5t11 23.5q0 18 -28 33t-62 26t-62 42t-28 78q0 65 45 100t112 35
q102 0 149 -86z" />
    <glyph glyph-name="t" unicode="t" horiz-adv-x="252" 
d="M246 315h-56v-315h-129v315h-49v108h49v140h129v-140h56v-108z" />
    <glyph glyph-name="u" unicode="u" horiz-adv-x="501" 
d="M443 174q0 -92 -50.5 -139t-143.5 -47q-108 0 -159 63q-32 40 -32 123v249h129v-234q0 -36 14 -55t49 -19q63 0 63 73v235h130v-249z" />
    <glyph glyph-name="v" unicode="v" horiz-adv-x="448" 
d="M447 423l-160 -423h-121l-165 423h146l65 -216q5 -16 11 -48q7 32 11 46l67 218h146z" />
    <glyph glyph-name="w" unicode="w" horiz-adv-x="669" 
d="M668 423l-138 -423h-117l-61 214q-3 10 -6.5 29t-4.5 25q-4 -20 -11 -50l-58 -218h-117l-154 423h144q6 -21 23.5 -76.5t29 -95t20.5 -77.5q7 37 16 78.5t20.5 92t17.5 78.5h131l56 -204q6 -23 9 -45q4 23 16 67l47 182h137z" />
    <glyph glyph-name="x" unicode="x" horiz-adv-x="443" 
d="M442 0h-155l-65 118l-73 -118h-148l148 214l-145 209h157l64 -108l60 108h154l-141 -209z" />
    <glyph glyph-name="y" unicode="y" horiz-adv-x="449" 
d="M448 423l-240 -623h-139l102 243l-170 380h144l73 -185q12 -31 15 -45q8 30 13 44l66 186h136z" />
    <glyph glyph-name="z" unicode="z" horiz-adv-x="423" 
d="M411 406l-190 -293h185v-113h-388v18l182 292h-168v113h379v-17z" />
    <glyph glyph-name="braceleft" unicode="{" 
d="M402 -193q-50 -2 -76 -2q-80 0 -115.5 32.5t-35.5 111.5v155q0 37 -11.5 59t-43.5 28v108q55 10 55 76v156q0 79 35.5 111.5t116.5 32.5l75 -3v-113q-9 1 -26 1q-41 0 -57 -9.5t-16 -48.5v-136q0 -47 -12 -74.5t-48 -51.5q36 -24 48 -51.5t12 -74.5v-137q0 -16 5 -27.5
t9 -17.5t18 -9t19 -3.5t24.5 0t23.5 0.5v-113z" />
    <glyph glyph-name="bar" unicode="|" 
d="M314 -250h-128v1000h128v-1000z" />
    <glyph glyph-name="braceright" unicode="}" 
d="M402 181q-55 -12 -55 -77v-155q0 -84 -37.5 -114t-124.5 -30q-21 0 -65 2v113q6 0 18.5 -0.5t18.5 -0.5q33 0 47.5 12.5t14.5 45.5v137q0 44 12 75q11 26 48 51q-35 23 -47.5 51.5t-12.5 74.5v136q0 40 -16.5 49t-59.5 9q-15 0 -23 -1v113l75 3q81 0 116.5 -32.5
t35.5 -112.5v-155q0 -36 11.5 -58t43.5 -28v-108z" />
    <glyph glyph-name="asciitilde" unicode="~" horiz-adv-x="667" 
d="M577 705q-30 -64 -65 -98.5t-94 -34.5q-33 0 -93 25t-91 25q-28 0 -42.5 -14.5t-30.5 -46.5l-71 46q3 7 10 22t10 22q44 94 131 94q33 0 95 -24.5t96 -24.5q26 0 41 12.5t31 38.5z" />
    <glyph glyph-name="nbspace" unicode="&#xa0;" horiz-adv-x="250" 
 />
    <glyph glyph-name="exclamdown" unicode="&#xa1;" horiz-adv-x="311" 
d="M237 433q0 -35 -23.5 -58.5t-58.5 -23.5q-34 0 -58 24t-24 58t24 58t58 24t58 -24t24 -58zM223 -167h-135v461h135v-461z" />
    <glyph glyph-name="cent" unicode="&#xa2;" horiz-adv-x="567" 
d="M447 141q-37 -20 -82 -26v-88h-94v90q-77 16 -124.5 77.5t-47.5 140.5t47.5 140t124.5 78v87h94v-84q65 -16 82 -24v-144q-40 54 -107 54q-45 0 -76 -30.5t-31 -75.5q0 -44 31 -76t75 -32q56 0 108 59v-146z" />
    <glyph glyph-name="sterling" unicode="&#xa3;" horiz-adv-x="567" 
d="M521 519l-117 -54q-22 101 -98 101q-34 0 -57 -23t-23 -57q0 -12 2.5 -24t8.5 -25.5t10 -21.5t13 -23.5t12 -20.5h146v-95h-120q0 -41 -14.5 -69.5t-47.5 -69.5q16 2 24 2q20 0 58.5 -9.5t58.5 -9.5q48 0 94 41l49 -108q-57 -54 -137 -54q-33 0 -96 18t-96 18
q-69 0 -129 -44v125q65 38 84 58q30 31 30 68q0 12 -8 34h-106v95h65q-34 65 -34 124q0 82 50 128q60 57 159 57q103 0 166 -63q28 -29 53 -98z" />
    <glyph glyph-name="currency" unicode="&#xa4;" horiz-adv-x="667" 
d="M646 137l-68 -69l-103 102q-67 -45 -142 -45q-69 0 -140 44l-103 -101l-69 69l103 103q-44 64 -44 137t45 138l-105 103l70 70l104 -103q65 43 140 43q72 0 137 -42l103 101l69 -69l-101 -102q45 -68 45 -139t-43 -137zM470 377q0 56 -40 96.5t-96 40.5q-57 0 -97 -40
t-40 -97t40 -97.5t97 -40.5q56 0 96 41t40 97z" />
    <glyph glyph-name="yen" unicode="&#xa5;" horiz-adv-x="567" 
d="M530 667l-109 -224h77v-72h-109l-30 -66h135v-71h-139v-234h-129v234h-147v71h141l-32 66h-113v72h77l-116 224h140l89 -181q1 -3 6.5 -13t9.5 -18.5t4 -12.5q1 -2 4 -10q7 18 23 54l80 181h138z" />
    <glyph glyph-name="brokenbar" unicode="&#xa6;" 
d="M308 320h-119v428h119v-428zM308 -250h-119v403h119v-403z" />
    <glyph glyph-name="section" unicode="&#xa7;" horiz-adv-x="567" 
d="M497 299q0 -114 -113 -169q87 -41 87 -134q0 -77 -55.5 -125t-134.5 -48q-87 0 -136.5 50t-54.5 138h124q0 -35 17.5 -59t51.5 -24q29 0 49 20.5t20 49.5q0 17 -7.5 31t-15.5 22t-26.5 17.5t-26.5 12t-29 10.5q-90 30 -124 66q-47 50 -47 126q0 59 28 103.5t83 58.5
q-85 40 -85 134q0 76 51.5 118t129.5 42q52 0 98.5 -20t71.5 -60q23 -38 23 -98h-121q-6 80 -66 80q-26 0 -45 -19.5t-19 -45.5q0 -28 28 -48.5t68 -36.5t80 -37t68 -60.5t28 -94.5zM366 287q0 33 -23.5 58t-56.5 25t-56.5 -25t-23.5 -58t23.5 -58t56.5 -25t56.5 25t23.5 58
z" />
    <glyph glyph-name="dieresis" unicode="&#xa8;" 
d="M423 562q0 -30 -21.5 -51.5t-51.5 -21.5t-51.5 21.5t-21.5 51.5t21.5 51.5t51.5 21.5q31 0 52 -21t21 -52zM223 562q0 -30 -21.5 -51.5t-51.5 -21.5t-51.5 21.5t-21.5 51.5t21.5 51.5t51.5 21.5q31 0 52 -21t21 -52z" />
    <glyph glyph-name="copyright" unicode="&#xa9;" horiz-adv-x="760" 
d="M727 333q0 -144 -101 -246t-245 -102t-246 102.5t-102 246.5t102.5 246t246.5 102q143 0 244 -103t101 -246zM657 333q0 117 -80 201.5t-196 84.5q-117 0 -197.5 -84t-80.5 -201t81 -202t197 -85t196 85t80 201zM519 162q-54 -38 -130 -38q-91 0 -153 58.5t-62 148.5
q0 93 65.5 152.5t159.5 59.5q74 0 120 -33v-114q-62 60 -118 60q-50 0 -86 -36.5t-36 -86.5t36 -86.5t86 -36.5q62 0 118 63v-111z" />
    <glyph glyph-name="ordfeminine" unicode="&#xaa;" horiz-adv-x="487" 
d="M383 377h-93v39q-26 -47 -88 -47q-60 0 -92.5 44t-32.5 107q0 62 33 108.5t93 46.5t87 -47v39h93v-290zM383 297h-300v33h300v-33zM293 522q0 30 -16 50t-45 20q-28 0 -43.5 -20t-15.5 -49q0 -30 15 -50.5t44 -20.5t45 20.5t16 49.5z" />
    <glyph glyph-name="guillemotleft" unicode="&#xab;" horiz-adv-x="504" 
d="M458 75l-68 -53l-157 203l157 199l68 -53l-115 -146zM258 75l-65 -53l-160 203l155 199l70 -53l-115 -146z" />
    <glyph glyph-name="logicalnot" unicode="&#xac;" 
d="M467 0h-129v151h-305v116h434v-267z" />
    <glyph glyph-name="registered" unicode="&#xae;" horiz-adv-x="483" 
d="M450 557q0 -86 -61.5 -147.5t-147.5 -61.5q-85 0 -146.5 61.5t-61.5 147.5q0 85 61.5 146.5t146.5 61.5q86 0 147.5 -61t61.5 -147zM404 557q0 67 -47.5 114.5t-115.5 47.5q-67 0 -114.5 -47.5t-47.5 -114.5t47.5 -115t114.5 -48t115 48t48 115zM328 447h-56l-49 88v-88
h-54v220h73q32 0 53.5 -17t21.5 -48q0 -21 -11.5 -36.5t-32.5 -19.5zM263 600q0 23 -35 23h-5v-48h6q34 0 34 25z" />
    <glyph glyph-name="macron" unicode="&#xaf;" 
d="M423 499h-346v88h346v-88z" />
    <glyph glyph-name="degree" unicode="&#xb0;" 
d="M404 509q0 -63 -45.5 -107.5t-108.5 -44.5t-108.5 44.5t-45.5 107.5t45.5 107t108.5 44t108.5 -44t45.5 -107zM327 509q0 31 -22.5 53.5t-54.5 22.5q-31 0 -54 -22t-23 -53q0 -32 22.5 -54.5t54.5 -22.5t54.5 22.5t22.5 53.5z" />
    <glyph glyph-name="plusminus" unicode="&#xb1;" 
d="M467 356h-153v-154h-128v154h-153v119h153v154h128v-154h153v-119zM467 50h-434v119h434v-119z" />
    <glyph glyph-name="twosuperior" unicode="&#xb2;" horiz-adv-x="387" 
d="M325 267h-297l121 137q88 99 88 145q0 23 -16.5 40.5t-39.5 17.5q-28 0 -41 -20t-13 -49h-89q5 65 41.5 103.5t101.5 38.5q58 0 99.5 -37t41.5 -95q0 -65 -72 -141l-63 -67h138v-73z" />
    <glyph glyph-name="threesuperior" unicode="&#xb3;" horiz-adv-x="387" 
d="M325 379q0 -58 -42.5 -91.5t-102.5 -33.5q-59 0 -100 36.5t-44 94.5h84q6 -58 64 -58q26 0 43 17.5t17 42.5t-17 42.5t-42 17.5q-3 0 -9.5 -0.5t-9.5 -0.5v63q4 -1 13 -1q24 0 38 13.5t14 37.5q0 20 -14 34t-34 14q-46 0 -52 -50h-79q16 121 133 121q53 0 89 -30t36 -82
q0 -57 -42 -86q57 -27 57 -101z" />
    <glyph glyph-name="acute" unicode="&#xb4;" 
d="M402 622l-138 -137l-72 45l108 159z" />
    <glyph glyph-name="mu" unicode="&#xb5;" 
d="M475 0h-127v57q-34 -67 -97 -67q-62 0 -96 61v-224h-128v653h128v-254q0 -65 18 -92q28 -43 80 -43q51 0 77 44q18 30 18 94v251h127v-480z" />
    <glyph glyph-name="paragraph" unicode="&#xb6;" horiz-adv-x="664" 
d="M591 568h-73v-660h-108v660h-84v-660h-109v413h-12q-78 0 -128 46.5t-50 123.5q0 176 231 176h333v-99z" />
    <glyph glyph-name="periodcentered" unicode="&#xb7;" horiz-adv-x="213" 
d="M213 347q0 -44 -31 -75.5t-75 -31.5t-75.5 31.5t-31.5 75.5t31.5 75t75.5 31t75 -31t31 -75z" />
    <glyph glyph-name="cedilla" unicode="&#xb8;" 
d="M347 -79l-100 -132l-67 39l81 132z" />
    <glyph glyph-name="onesuperior" unicode="&#xb9;" horiz-adv-x="387" 
d="M239 267h-84v327h-58v73h142v-400z" />
    <glyph glyph-name="ordmasculine" unicode="&#xba;" horiz-adv-x="487" 
d="M404 520q0 -69 -46 -109.5t-116 -40.5q-68 0 -113.5 40.5t-45.5 107.5q0 68 46.5 112.5t114.5 44.5t114 -44t46 -111zM397 297h-308v33h308v-33zM308 523q0 29 -18 49t-47 20t-46.5 -20t-17.5 -49q0 -30 17 -50.5t47 -20.5t47.5 20.5t17.5 50.5z" />
    <glyph glyph-name="guillemotright" unicode="&#xbb;" horiz-adv-x="504" 
d="M471 225l-160 -203l-64 53l114 150l-114 146l70 53zM271 225l-157 -203l-67 53l114 150l-114 146l67 53z" />
    <glyph glyph-name="onequarter" unicode="&#xbc;" horiz-adv-x="909" 
d="M875 69h-47v-69h-78v69h-194v37l198 301h74v-269h47v-69zM674 659l-397 -687l-53 31l397 686zM234 267h-84v327h-58v73h142v-400zM750 138v142l-92 -142h92z" />
    <glyph glyph-name="onehalf" unicode="&#xbd;" horiz-adv-x="892" 
d="M837 0h-297l121 137q88 100 88 144q0 23 -16.5 40.5t-39.5 17.5q-28 0 -41 -19.5t-13 -48.5h-89q5 65 42 103t101 38q58 0 99.5 -37t41.5 -94q0 -65 -72 -141l-63 -67h138v-73zM674 659l-397 -687l-53 31l397 686zM234 267h-84v327h-58v73h142v-400z" />
    <glyph glyph-name="threequarters" unicode="&#xbe;" horiz-adv-x="906" 
d="M872 69h-47v-69h-78v69h-194v37l198 301h74v-269h47v-69zM671 659l-397 -687l-53 31l397 686zM319 379q0 -58 -42.5 -91.5t-102.5 -33.5q-59 0 -100 36.5t-44 94.5h84q6 -58 64 -58q26 0 43 17.5t17 42.5t-17 42.5t-42 17.5q-3 0 -9.5 -0.5t-9.5 -0.5v63q4 -1 13 -1
q24 0 38 13.5t14 37.5q0 20 -14 34t-34 14q-46 0 -52 -50h-79q16 121 133 121q53 0 89 -30t36 -82q0 -57 -42 -86q57 -27 57 -101zM747 138v142l-92 -142h92z" />
    <glyph glyph-name="questiondown" unicode="&#xbf;" horiz-adv-x="493" 
d="M334 433q0 -34 -24 -58t-58 -24t-57.5 24t-23.5 58t23.5 58t57.5 24t58 -24t24 -58zM447 26q-11 -209 -200 -209q-91 0 -145.5 53.5t-54.5 144.5q0 70 36 120.5t104 59.5v99h131v-181q-64 0 -95.5 -19.5t-31.5 -79.5q0 -32 16 -53.5t47 -21.5q57 0 61 87h132z" />
    <glyph glyph-name="Agrave" unicode="&#xc0;" horiz-adv-x="605" 
d="M373 781l-66 -54l-155 116l91 80zM609 0h-146l-44 145h-230l-46 -145h-147l233 667h148zM379 257l-53 166q-16 49 -23 95q-5 -32 -14.5 -68.5t-17 -62t-22 -68t-20.5 -62.5h150z" />
    <glyph glyph-name="Aacute" unicode="&#xc1;" horiz-adv-x="605" 
d="M453 843l-156 -116l-65 54l129 142zM609 0h-146l-44 145h-230l-46 -145h-147l233 667h148zM379 257l-53 166q-16 49 -23 95q-5 -32 -14.5 -68.5t-17 -62t-22 -68t-20.5 -62.5h150z" />
    <glyph glyph-name="Acircumflex" unicode="&#xc2;" horiz-adv-x="605" 
d="M470 796l-64 -66l-105 105l-102 -105l-65 66l143 130h54zM609 0h-146l-44 145h-230l-46 -145h-147l233 667h148zM379 257l-53 166q-16 49 -23 95q-5 -32 -14.5 -68.5t-17 -62t-22 -68t-20.5 -62.5h150z" />
    <glyph glyph-name="Atilde" unicode="&#xc3;" horiz-adv-x="605" 
d="M488 840q-39 -110 -114 -110q-30 0 -77 24t-65 24q-11 0 -20.5 -8.5t-13 -14.5t-10.5 -20l-72 22q18 51 43 81t69 30q30 0 77 -23.5t66 -23.5q12 0 21.5 8.5t13.5 16t11 21.5zM609 0h-146l-44 145h-230l-46 -145h-147l233 667h148zM379 257l-53 166q-16 49 -23 95
q-5 -32 -14.5 -68.5t-17 -62t-22 -68t-20.5 -62.5h150z" />
    <glyph glyph-name="Adieresis" unicode="&#xc4;" horiz-adv-x="605" 
d="M475 801q0 -28 -20 -48t-48 -20t-48 20t-20 48t20 48t48 20q29 0 48.5 -19.5t19.5 -48.5zM265 801q0 -28 -20 -48t-48 -20t-48 20t-20 48t20 48t48 20q29 0 48.5 -19.5t19.5 -48.5zM609 0h-146l-44 145h-230l-46 -145h-147l233 667h148zM379 257l-53 166q-16 49 -23 95
q-5 -32 -14.5 -68.5t-17 -62t-22 -68t-20.5 -62.5h150z" />
    <glyph glyph-name="Aring" unicode="&#xc5;" horiz-adv-x="605" 
d="M399 820q0 -40 -28.5 -68.5t-68.5 -28.5t-68 28.5t-28 68.5t28 68.5t68 28.5t68.5 -28.5t28.5 -68.5zM609 0h-146l-44 145h-230l-46 -145h-147l233 667h148zM345 820q0 18 -12.5 30.5t-30.5 12.5q-17 0 -29.5 -13t-12.5 -30t12.5 -30t29.5 -13q18 0 30.5 12.5t12.5 30.5z
M379 257l-53 166q-16 49 -23 95q-5 -32 -14.5 -68.5t-17 -62t-22 -68t-20.5 -62.5h150z" />
    <glyph glyph-name="AE" unicode="&#xc6;" horiz-adv-x="912" 
d="M908 0h-421l-41 140h-251l-43 -140h-151l241 667h438l41 -122h-277l52 -142h274l42 -122h-271l57 -160h268zM407 257l-61 173q-18 53 -25 98q-11 -51 -27 -98l-61 -173h174z" />
    <glyph glyph-name="Ccedilla" unicode="&#xc7;" horiz-adv-x="621" 
d="M583 45q-101 -62 -200 -62q-148 0 -246.5 98.5t-98.5 247.5q0 153 104 253.5t257 100.5q102 0 184 -51v-172q-83 97 -182 97q-90 0 -153 -67t-63 -157t63 -156.5t153 -66.5q104 0 182 99v-164zM436 -91l-111 -145l-74 42l90 147z" />
    <glyph glyph-name="Egrave" unicode="&#xc8;" horiz-adv-x="482" 
d="M332 781l-66 -54l-156 116l92 80zM444 0h-376v667h376v-122h-231v-142h231v-122h-231v-160h231v-121z" />
    <glyph glyph-name="Eacute" unicode="&#xc9;" horiz-adv-x="482" 
d="M405 843l-156 -116l-65 54l129 142zM444 0h-376v667h376v-122h-231v-142h231v-122h-231v-160h231v-121z" />
    <glyph glyph-name="Ecircumflex" unicode="&#xca;" horiz-adv-x="482" 
d="M424 796l-64 -66l-105 105l-102 -105l-65 66l143 130h54zM444 0h-376v667h376v-122h-231v-142h231v-122h-231v-160h231v-121z" />
    <glyph glyph-name="Edieresis" unicode="&#xcb;" horiz-adv-x="482" 
d="M429 801q0 -28 -20 -48t-48 -20t-48 20t-20 48q0 29 19.5 48.5t48.5 19.5t48.5 -19.5t19.5 -48.5zM219 801q0 -28 -20 -48t-48 -20t-48 20t-20 48q0 29 19.5 48.5t48.5 19.5t48.5 -19.5t19.5 -48.5zM444 0h-376v667h376v-122h-231v-142h231v-122h-231v-160h231v-121z" />
    <glyph glyph-name="Igrave" unicode="&#xcc;" horiz-adv-x="281" 
d="M211 781l-66 -54l-155 116l91 80zM213 0h-145v667h145v-667z" />
    <glyph glyph-name="Iacute" unicode="&#xcd;" horiz-adv-x="281" 
d="M291 843l-156 -116l-65 54l129 142zM213 0h-145v667h145v-667z" />
    <glyph glyph-name="Icircumflex" unicode="&#xce;" horiz-adv-x="281" 
d="M292 799l-58 -59l-95 94l-91 -94l-59 59l129 117h48zM213 0h-145v667h145v-667z" />
    <glyph glyph-name="Idieresis" unicode="&#xcf;" horiz-adv-x="281" 
d="M281 801q0 -25 -17.5 -43t-43.5 -18q-25 0 -43 18t-18 43q0 26 18 44t43 18t43 -18t18 -44zM122 801q0 -25 -18 -43t-43 -18t-43 18t-18 43q0 26 18 44t43 18t43 -18t18 -44zM213 0h-145v667h145v-667z" />
    <glyph glyph-name="Eth" unicode="&#xd0;" horiz-adv-x="661" 
d="M623 334q0 -84 -35.5 -161t-102.5 -120q-83 -53 -216 -53h-201v283h-47v100h47v284h206q129 0 201 -41q71 -42 109.5 -123t38.5 -169zM476 332q0 92 -53.5 152.5t-144.5 60.5h-65v-162h136v-100h-136v-162h63q93 0 146.5 59t53.5 152z" />
    <glyph glyph-name="Ntilde" unicode="&#xd1;" horiz-adv-x="749" 
d="M561 840q-39 -110 -114 -110q-31 0 -77 24t-65 24q-11 0 -20.5 -8.5t-13 -14.5t-10.5 -20l-72 22q18 51 43 81t69 30q31 0 78 -23.5t65 -23.5q12 0 21.5 8.5t13.5 16t11 21.5zM681 0h-141l-292 390q-23 31 -39 58q4 -70 4 -105v-343h-145v667h142l291 -401q34 -48 39 -56
q0 10 -1 28t-1.5 33t-0.5 28v368h144v-667z" />
    <glyph glyph-name="Ograve" unicode="&#xd2;" horiz-adv-x="790" 
d="M466 781l-66 -54l-156 116l92 80zM752 335q0 -150 -102 -251t-252 -101q-153 0 -256.5 100t-103.5 252q0 150 102.5 249t253.5 99q153 0 255.5 -98t102.5 -250zM605 336q0 89 -60 155t-148 66q-90 0 -151 -66.5t-61 -157.5q0 -90 60 -156.5t149 -66.5t150 68t61 158z" />
    <glyph glyph-name="Oacute" unicode="&#xd3;" horiz-adv-x="790" 
d="M546 843l-156 -116l-66 54l130 142zM752 335q0 -150 -102 -251t-252 -101q-153 0 -256.5 100t-103.5 252q0 150 102.5 249t253.5 99q153 0 255.5 -98t102.5 -250zM605 336q0 89 -60 155t-148 66q-90 0 -151 -66.5t-61 -157.5q0 -90 60 -156.5t149 -66.5t150 68t61 158z
" />
    <glyph glyph-name="Ocircumflex" unicode="&#xd4;" horiz-adv-x="790" 
d="M563 796l-64 -66l-105 105l-102 -105l-65 66l143 130h54zM752 335q0 -150 -102 -251t-252 -101q-153 0 -256.5 100t-103.5 252q0 150 102.5 249t253.5 99q153 0 255.5 -98t102.5 -250zM605 336q0 89 -60 155t-148 66q-90 0 -151 -66.5t-61 -157.5q0 -90 60 -156.5
t149 -66.5t150 68t61 158z" />
    <glyph glyph-name="Otilde" unicode="&#xd5;" horiz-adv-x="790" 
d="M581 840q-39 -110 -114 -110q-31 0 -77 24t-65 24q-11 0 -20.5 -8.5t-13 -14.5t-10.5 -20l-72 22q18 51 43 81t69 30q31 0 78 -23.5t65 -23.5q12 0 21.5 8.5t13.5 16t11 21.5zM752 335q0 -150 -102 -251t-252 -101q-153 0 -256.5 100t-103.5 252q0 150 102.5 249
t253.5 99q153 0 255.5 -98t102.5 -250zM605 336q0 89 -60 155t-148 66q-90 0 -151 -66.5t-61 -157.5q0 -90 60 -156.5t149 -66.5t150 68t61 158z" />
    <glyph glyph-name="Odieresis" unicode="&#xd6;" horiz-adv-x="790" 
d="M568 801q0 -28 -20 -48t-48 -20t-48 20t-20 48q0 29 20 48.5t48 19.5t48 -19.5t20 -48.5zM358 801q0 -28 -20 -48t-48 -20t-48 20t-20 48q0 29 20 48.5t48 19.5t48 -19.5t20 -48.5zM752 335q0 -150 -102 -251t-252 -101q-153 0 -256.5 100t-103.5 252q0 150 102.5 249
t253.5 99q153 0 255.5 -98t102.5 -250zM605 336q0 89 -60 155t-148 66q-90 0 -151 -66.5t-61 -157.5q0 -90 60 -156.5t149 -66.5t150 68t61 158z" />
    <glyph glyph-name="multiply" unicode="&#xd7;" 
d="M362 145l-112 112l-112 -112l-83 83l112 112l-112 112l83 83l112 -112l112 112l83 -83l-112 -112l112 -112z" />
    <glyph glyph-name="Oslash" unicode="&#xd8;" horiz-adv-x="816" 
d="M778 603l-76 -70q59 -90 59 -198q0 -150 -101.5 -251t-251.5 -101q-137 0 -236 81l-75 -68l-59 66l74 67q-64 98 -64 204q0 151 102 250.5t253 99.5q140 0 240 -82l76 68zM536 509q-57 48 -131 48q-90 0 -150 -66.5t-60 -157.5q0 -53 26 -108zM614 335q0 53 -24 104
l-313 -283q53 -46 126 -46q89 0 150 68t61 157z" />
    <glyph glyph-name="Ugrave" unicode="&#xd9;" horiz-adv-x="651" 
d="M396 781l-66 -54l-155 116l91 80zM583 248q0 -122 -69.5 -193.5t-190.5 -71.5q-60 0 -118.5 22.5t-91.5 65.5q-45 58 -45 165v431h145v-427q0 -64 23 -92q30 -38 89 -38q53 0 83 34.5t30 87.5v435h145v-419z" />
    <glyph glyph-name="Uacute" unicode="&#xda;" horiz-adv-x="651" 
d="M476 843l-156 -116l-65 54l129 142zM583 248q0 -122 -69.5 -193.5t-190.5 -71.5q-60 0 -118.5 22.5t-91.5 65.5q-45 58 -45 165v431h145v-427q0 -64 23 -92q30 -38 89 -38q53 0 83 34.5t30 87.5v435h145v-419z" />
    <glyph glyph-name="Ucircumflex" unicode="&#xdb;" horiz-adv-x="651" 
d="M493 796l-64 -66l-105 105l-102 -105l-65 66l143 130h54zM583 248q0 -122 -69.5 -193.5t-190.5 -71.5q-60 0 -118.5 22.5t-91.5 65.5q-45 58 -45 165v431h145v-427q0 -64 23 -92q30 -38 89 -38q53 0 83 34.5t30 87.5v435h145v-419z" />
    <glyph glyph-name="Udieresis" unicode="&#xdc;" horiz-adv-x="651" 
d="M498 801q0 -28 -20 -48t-48 -20t-48 20t-20 48t20 48t48 20t48 -19.5t20 -48.5zM288 801q0 -28 -20 -48t-48 -20t-48 20t-20 48t20 48t48 20t48 -19.5t20 -48.5zM583 248q0 -122 -69.5 -193.5t-190.5 -71.5q-60 0 -118.5 22.5t-91.5 65.5q-45 58 -45 165v431h145v-427
q0 -64 23 -92q30 -38 89 -38q53 0 83 34.5t30 87.5v435h145v-419z" />
    <glyph glyph-name="Yacute" unicode="&#xdd;" horiz-adv-x="516" 
d="M392 862l-138 -137l-72 45l108 159zM527 667l-192 -357v-310h-144v305l-202 362h160q5 -10 28.5 -54t33 -62.5t25.5 -52.5t27 -63q6 19 40 93l65 139h159z" />
    <glyph glyph-name="Thorn" unicode="&#xde;" horiz-adv-x="487" 
d="M469 409q0 -98 -62.5 -158t-161.5 -60h-32v-191h-155v668h155v-61h59q88 0 142.5 -54.5t54.5 -143.5zM327 401q0 40 -25 62t-66 22h-23v-173h22q39 0 65.5 25t26.5 64z" />
    <glyph glyph-name="germandbls" unicode="&#xdf;" horiz-adv-x="537" 
d="M503 210q0 -101 -63.5 -160t-165.5 -59q-25 0 -38 1v114q58 0 84 14q49 26 49 99q0 72 -54 98q-26 12 -79 12v108q101 2 101 85q0 36 -20.5 62.5t-55.5 26.5q-38 0 -56 -27t-18 -66v-518h-129v522q0 87 40 137q56 69 164 69q86 0 144.5 -50t58.5 -134q0 -106 -94 -148
q41 -12 66 -30q66 -48 66 -156z" />
    <glyph glyph-name="agrave" unicode="&#xe0;" horiz-adv-x="531" 
d="M298 530l-73 -45l-138 137l102 67zM473 0h-130v66q-37 -78 -129 -78q-87 0 -133 65.5t-46 155.5t47 158t133 68q89 0 128 -78v66h130v-423zM348 211q0 45 -24 76.5t-67 31.5q-42 0 -65.5 -31t-23.5 -75t22.5 -76t65.5 -32t67.5 31t24.5 75z" />
    <glyph glyph-name="aacute" unicode="&#xe1;" horiz-adv-x="531" 
d="M417 622l-138 -137l-72 45l108 159zM473 0h-130v66q-37 -78 -129 -78q-87 0 -133 65.5t-46 155.5t47 158t133 68q89 0 128 -78v66h130v-423zM348 211q0 45 -24 76.5t-67 31.5q-42 0 -65.5 -31t-23.5 -75t22.5 -76t65.5 -32t67.5 31t24.5 75z" />
    <glyph glyph-name="acircumflex" unicode="&#xe2;" horiz-adv-x="531" 
d="M433 551l-64 -66l-105 105l-102 -105l-65 66l143 130h54zM473 0h-130v66q-37 -78 -129 -78q-87 0 -133 65.5t-46 155.5t47 158t133 68q89 0 128 -78v66h130v-423zM348 211q0 45 -24 76.5t-67 31.5q-42 0 -65.5 -31t-23.5 -75t22.5 -76t65.5 -32t67.5 31t24.5 75z" />
    <glyph glyph-name="atilde" unicode="&#xe3;" horiz-adv-x="531" 
d="M451 599q-39 -110 -114 -110q-31 0 -77 24t-65 24q-11 0 -20.5 -8.5t-13 -14.5t-10.5 -20l-72 22q18 51 43 81t69 30q31 0 78 -23.5t65 -23.5q12 0 21.5 8.5t13.5 16t11 21.5zM473 0h-130v66q-37 -78 -129 -78q-87 0 -133 65.5t-46 155.5t47 158t133 68q89 0 128 -78v66
h130v-423zM348 211q0 45 -24 76.5t-67 31.5q-42 0 -65.5 -31t-23.5 -75t22.5 -76t65.5 -32t67.5 31t24.5 75z" />
    <glyph glyph-name="adieresis" unicode="&#xe4;" horiz-adv-x="531" 
d="M438 562q0 -30 -21.5 -51.5t-51.5 -21.5t-51.5 21.5t-21.5 51.5t21.5 51.5t51.5 21.5q31 0 52 -21t21 -52zM238 562q0 -30 -21.5 -51.5t-51.5 -21.5t-51.5 21.5t-21.5 51.5t21.5 51.5t51.5 21.5q31 0 52 -21t21 -52zM473 0h-130v66q-37 -78 -129 -78q-87 0 -133 65.5
t-46 155.5t47 158t133 68q89 0 128 -78v66h130v-423zM348 211q0 45 -24 76.5t-67 31.5q-42 0 -65.5 -31t-23.5 -75t22.5 -76t65.5 -32t67.5 31t24.5 75z" />
    <glyph glyph-name="aring" unicode="&#xe5;" horiz-adv-x="531" 
d="M382 595q0 -45 -32.5 -77.5t-77.5 -32.5t-77.5 32.5t-32.5 77.5q0 46 32 78t78 32t78 -32t32 -78zM473 0h-130v66q-37 -78 -129 -78q-87 0 -133 65.5t-46 155.5t47 158t133 68q89 0 128 -78v66h130v-423zM319 595q0 20 -14 34t-33 14t-33 -14t-14 -34q0 -19 13.5 -33
t33.5 -14t33.5 14t13.5 33zM348 211q0 45 -24 76.5t-67 31.5q-42 0 -65.5 -31t-23.5 -75t22.5 -76t65.5 -32t67.5 31t24.5 75z" />
    <glyph glyph-name="ae" unicode="&#xe6;" horiz-adv-x="751" 
d="M717 223q0 -12 -2 -38h-286q2 -42 28.5 -67t68.5 -25q53 0 87 50l100 -53q-34 -47 -85.5 -74.5t-108.5 -27.5q-88 0 -145 63q-55 -63 -157 -63q-73 0 -127.5 36t-54.5 106q0 65 51 104t119 39q62 0 110 -29q0 46 -28.5 68.5t-75.5 22.5q-51 0 -137 -38l-1 106
q69 32 144 32q99 0 165 -65q53 65 140 65q90 0 142.5 -60t52.5 -152zM604 255q-5 36 -27 58t-58 22q-35 0 -57.5 -22.5t-26.5 -57.5h169zM318 135q0 18 -15 29.5t-32 15t-35 3.5q-28 0 -52 -12t-24 -37q0 -24 25.5 -36.5t52.5 -12.5q30 0 55 11.5t25 38.5z" />
    <glyph glyph-name="ccedilla" unicode="&#xe7;" horiz-adv-x="417" 
d="M383 18q-62 -30 -125 -30q-96 0 -159.5 64t-63.5 160t64.5 159.5t160.5 63.5q66 0 123 -27v-144q-39 55 -107 55q-45 0 -76.5 -30.5t-31.5 -75.5q0 -44 31.5 -76t75.5 -32q34 0 57.5 14.5t50.5 44.5v-146zM305 -79l-100 -132l-67 39l81 132z" />
    <glyph glyph-name="egrave" unicode="&#xe8;" horiz-adv-x="497" 
d="M308 530l-73 -45l-138 137l102 67zM462 181h-304q6 -85 86 -85q60 0 90 53l118 -47q-27 -49 -65 -75q-56 -39 -133 -39q-101 0 -160 60.5t-59 161.5q0 100 57 162.5t155 62.5q105 0 160 -64t55 -170v-20zM339 258q-7 36 -31 57t-60 21t-60.5 -21.5t-29.5 -56.5h181z" />
    <glyph glyph-name="eacute" unicode="&#xe9;" horiz-adv-x="497" 
d="M401 622l-138 -137l-72 45l108 159zM462 181h-304q6 -85 86 -85q60 0 90 53l118 -47q-27 -49 -65 -75q-56 -39 -133 -39q-101 0 -160 60.5t-59 161.5q0 100 57 162.5t155 62.5q105 0 160 -64t55 -170v-20zM339 258q-7 36 -31 57t-60 21t-60.5 -21.5t-29.5 -56.5h181z" />
    <glyph glyph-name="ecircumflex" unicode="&#xea;" horiz-adv-x="497" 
d="M417 551l-64 -66l-105 105l-102 -105l-65 66l143 130h54zM462 181h-304q6 -85 86 -85q60 0 90 53l118 -47q-27 -49 -65 -75q-56 -39 -133 -39q-101 0 -160 60.5t-59 161.5q0 100 57 162.5t155 62.5q105 0 160 -64t55 -170v-20zM339 258q-7 36 -31 57t-60 21t-60.5 -21.5
t-29.5 -56.5h181z" />
    <glyph glyph-name="edieresis" unicode="&#xeb;" horiz-adv-x="497" 
d="M421 562q0 -30 -21.5 -51.5t-51.5 -21.5t-51.5 21.5t-21.5 51.5t21.5 51.5t51.5 21.5q31 0 52 -21t21 -52zM221 562q0 -30 -21.5 -51.5t-51.5 -21.5t-51.5 21.5t-21.5 51.5t21.5 51.5t51.5 21.5q31 0 52 -21t21 -52zM462 181h-304q6 -85 86 -85q60 0 90 53l118 -47
q-27 -49 -65 -75q-56 -39 -133 -39q-101 0 -160 60.5t-59 161.5q0 100 57 162.5t155 62.5q105 0 160 -64t55 -170v-20zM339 258q-7 36 -31 57t-60 21t-60.5 -21.5t-29.5 -56.5h181z" />
    <glyph glyph-name="igrave" unicode="&#xec;" horiz-adv-x="245" 
d="M190 512l-80 -31l-111 159l111 48zM187 0h-129v423h129v-423z" />
    <glyph glyph-name="iacute" unicode="&#xed;" horiz-adv-x="245" 
d="M247 640l-112 -159l-79 31l79 176zM187 0h-129v423h129v-423z" />
    <glyph glyph-name="icircumflex" unicode="&#xee;" horiz-adv-x="245" 
d="M252 554l-56 -51l-74 86l-72 -86l-57 51l111 117h41zM187 0h-129v423h129v-423z" />
    <glyph glyph-name="idieresis" unicode="&#xef;" horiz-adv-x="245" 
d="M244 559q0 -22 -15.5 -38t-37.5 -16q-23 0 -38.5 15.5t-15.5 38.5q0 22 16 38t38 16t37.5 -16t15.5 -38zM109 559q0 -22 -16 -38t-38 -16q-23 0 -38.5 15.5t-15.5 38.5q0 22 16 38t38 16q23 0 38.5 -15.5t15.5 -38.5zM187 0h-129v423h129v-423z" />
    <glyph glyph-name="eth" unicode="&#xf0;" horiz-adv-x="542" 
d="M507 224q0 -109 -67.5 -173.5t-176.5 -64.5q-107 0 -167.5 63t-60.5 170q0 100 75.5 169t173.5 58q-34 64 -78 115l-93 -47l-39 80l72 37q-25 20 -87 47l36 72q87 -34 136 -74l113 56l41 -82l-74 -38q87 -79 141.5 -180.5t54.5 -207.5zM369 213q0 44 -26.5 75t-69.5 31
q-44 0 -70.5 -31t-26.5 -75q0 -46 26 -77t71 -31t70.5 31t25.5 77z" />
    <glyph glyph-name="ntilde" unicode="&#xf1;" horiz-adv-x="502" 
d="M437 599q-39 -110 -114 -110q-31 0 -77 24t-65 24q-11 0 -20.5 -8.5t-13 -14.5t-10.5 -20l-72 22q18 51 43 81t69 30q31 0 78 -23.5t65 -23.5q12 0 21.5 8.5t13.5 16t11 21.5zM444 0h-129v246q0 81 -57 81q-36 0 -53.5 -26t-17.5 -64v-237h-129v423h129v-54q39 66 119 66
q74 0 114 -54q24 -33 24 -91v-290z" />
    <glyph glyph-name="ograve" unicode="&#xf2;" horiz-adv-x="529" 
d="M324 530l-73 -45l-138 137l102 67zM495 209q0 -101 -65 -161t-167 -60q-99 0 -163.5 59.5t-64.5 157.5q0 99 66 164.5t165 65.5q98 0 163.5 -64t65.5 -162zM361 213q0 44 -26.5 75t-69.5 31q-44 0 -70.5 -31t-26.5 -75q0 -46 26 -77t71 -31t70.5 31t25.5 77z" />
    <glyph glyph-name="oacute" unicode="&#xf3;" horiz-adv-x="529" 
d="M417 622l-138 -137l-72 45l108 159zM495 209q0 -101 -65 -161t-167 -60q-99 0 -163.5 59.5t-64.5 157.5q0 99 66 164.5t165 65.5q98 0 163.5 -64t65.5 -162zM361 213q0 44 -26.5 75t-69.5 31q-44 0 -70.5 -31t-26.5 -75q0 -46 26 -77t71 -31t70.5 31t25.5 77z" />
    <glyph glyph-name="ocircumflex" unicode="&#xf4;" horiz-adv-x="529" 
d="M433 551l-64 -66l-105 105l-102 -105l-65 66l143 130h54zM495 209q0 -101 -65 -161t-167 -60q-99 0 -163.5 59.5t-64.5 157.5q0 99 66 164.5t165 65.5q98 0 163.5 -64t65.5 -162zM361 213q0 44 -26.5 75t-69.5 31q-44 0 -70.5 -31t-26.5 -75q0 -46 26 -77t71 -31t70.5 31
t25.5 77z" />
    <glyph glyph-name="otilde" unicode="&#xf5;" horiz-adv-x="529" 
d="M451 599q-39 -110 -114 -110q-31 0 -77 24t-65 24q-11 0 -20.5 -8.5t-13 -14.5t-10.5 -20l-72 22q18 51 43 81t69 30q31 0 78 -23.5t65 -23.5q12 0 21.5 8.5t13.5 16t11 21.5zM495 209q0 -101 -65 -161t-167 -60q-99 0 -163.5 59.5t-64.5 157.5q0 99 66 164.5t165 65.5
q98 0 163.5 -64t65.5 -162zM361 213q0 44 -26.5 75t-69.5 31q-44 0 -70.5 -31t-26.5 -75q0 -46 26 -77t71 -31t70.5 31t25.5 77z" />
    <glyph glyph-name="odieresis" unicode="&#xf6;" horiz-adv-x="529" 
d="M438 562q0 -30 -21.5 -51.5t-51.5 -21.5t-51.5 21.5t-21.5 51.5t21.5 51.5t51.5 21.5q31 0 52 -21t21 -52zM238 562q0 -30 -21.5 -51.5t-51.5 -21.5t-51.5 21.5t-21.5 51.5t21.5 51.5t51.5 21.5q31 0 52 -21t21 -52zM495 209q0 -101 -65 -161t-167 -60q-99 0 -163.5 59.5
t-64.5 157.5q0 99 66 164.5t165 65.5q98 0 163.5 -64t65.5 -162zM361 213q0 44 -26.5 75t-69.5 31q-44 0 -70.5 -31t-26.5 -75q0 -46 26 -77t71 -31t70.5 31t25.5 77z" />
    <glyph glyph-name="divide" unicode="&#xf7;" 
d="M323 510q0 -30 -21.5 -52t-51.5 -22q-31 0 -52.5 21.5t-21.5 52.5t21.5 52t52.5 21t52 -21t21 -52zM467 281h-434v118h434v-118zM323 169q0 -30 -21.5 -51.5t-51.5 -21.5t-52 21.5t-22 51.5q0 31 21.5 52.5t52.5 21.5t52 -21.5t21 -52.5z" />
    <glyph glyph-name="oslash" unicode="&#xf8;" horiz-adv-x="544" 
d="M510 406l-54 -53q49 -62 49 -145q0 -100 -65 -160t-166 -60q-83 0 -141 42l-57 -57l-41 43l54 56q-43 56 -43 134q0 98 66.5 163.5t164.5 65.5q78 0 135 -41l55 55zM327 303q-26 16 -51 16q-44 0 -70.5 -31t-26.5 -75q0 -20 9 -49zM372 213q0 24 -11 49l-141 -140
q23 -17 55 -17q44 0 70.5 31.5t26.5 76.5z" />
    <glyph glyph-name="ugrave" unicode="&#xf9;" horiz-adv-x="501" 
d="M309 530l-73 -45l-138 137l102 67zM443 174q0 -92 -50.5 -139t-143.5 -47q-108 0 -159 63q-32 40 -32 123v249h129v-234q0 -36 14 -55t49 -19q63 0 63 73v235h130v-249z" />
    <glyph glyph-name="uacute" unicode="&#xfa;" horiz-adv-x="501" 
d="M402 622l-138 -137l-72 45l108 159zM443 174q0 -92 -50.5 -139t-143.5 -47q-108 0 -159 63q-32 40 -32 123v249h129v-234q0 -36 14 -55t49 -19q63 0 63 73v235h130v-249z" />
    <glyph glyph-name="ucircumflex" unicode="&#xfb;" horiz-adv-x="501" 
d="M418 551l-64 -66l-105 105l-102 -105l-65 66l143 130h54zM443 174q0 -92 -50.5 -139t-143.5 -47q-108 0 -159 63q-32 40 -32 123v249h129v-234q0 -36 14 -55t49 -19q63 0 63 73v235h130v-249z" />
    <glyph glyph-name="udieresis" unicode="&#xfc;" horiz-adv-x="501" 
d="M423 562q0 -30 -21.5 -51.5t-51.5 -21.5t-51.5 21.5t-21.5 51.5t21.5 51.5t51.5 21.5q31 0 52 -21t21 -52zM223 562q0 -30 -21.5 -51.5t-51.5 -21.5t-51.5 21.5t-21.5 51.5t21.5 51.5t51.5 21.5q31 0 52 -21t21 -52zM443 174q0 -92 -50.5 -139t-143.5 -47q-108 0 -159 63
q-32 40 -32 123v249h129v-234q0 -36 14 -55t49 -19q63 0 63 73v235h130v-249z" />
    <glyph glyph-name="yacute" unicode="&#xfd;" horiz-adv-x="449" 
d="M342 622l-138 -137l-72 45l108 159zM448 423l-240 -623h-139l102 243l-170 380h144l73 -185q12 -31 15 -45q8 30 13 44l66 186h136z" />
    <glyph glyph-name="thorn" unicode="&#xfe;" horiz-adv-x="534" 
d="M499 214q0 -92 -44 -159t-131 -67q-84 0 -137 73v-267h-129v873h129v-308q56 76 140 76q86 0 129 -65.5t43 -155.5zM366 210q0 46 -24 77.5t-69 31.5q-43 0 -65.5 -30.5t-22.5 -75.5q0 -46 23.5 -77t68.5 -31t67 29.5t22 75.5z" />
    <glyph glyph-name="ydieresis" unicode="&#xff;" horiz-adv-x="449" 
d="M398 562q0 -30 -21.5 -51.5t-51.5 -21.5t-51.5 21.5t-21.5 51.5t21.5 51.5t51.5 21.5q31 0 52 -21t21 -52zM198 562q0 -30 -21.5 -51.5t-51.5 -21.5t-51.5 21.5t-21.5 51.5t21.5 51.5t51.5 21.5q31 0 52 -21t21 -52zM448 423l-240 -623h-139l102 243l-170 380h144
l73 -185q12 -31 15 -45q8 30 13 44l66 186h136z" />
    <glyph glyph-name="dotlessi" unicode="&#x131;" horiz-adv-x="245" 
d="M187 0h-129v423h129v-423z" />
    <glyph glyph-name="Lslash" unicode="&#x141;" horiz-adv-x="415" 
d="M403 0h-335v254q-6 -3 -28.5 -16.5t-35.5 -20.5v115l64 40v295h145v-205l115 71v-115q-76 -50 -115 -75v-222h190v-121z" />
    <glyph glyph-name="lslash" unicode="&#x142;" horiz-adv-x="245" 
d="M247 443l-60 -38v-405h-129v323l-63 -40v111l63 40v295h129v-212l60 38v-112z" />
    <glyph glyph-name="OE" unicode="&#x152;" horiz-adv-x="1036" 
d="M998 0h-391v103q-70 -120 -233 -120q-149 0 -242.5 98t-93.5 248q0 146 96 250t241 104q152 0 227 -118v102h386v-122h-241v-142h244v-122h-244v-160h251v-121zM602 336q0 91 -57.5 156t-147.5 65q-93 0 -152.5 -66t-59.5 -160q0 -93 58 -157t150 -64q96 0 152.5 64.5
t56.5 161.5z" />
    <glyph glyph-name="oe" unicode="&#x153;" horiz-adv-x="829" 
d="M795 221q0 -6 -0.5 -18t-0.5 -18h-306q2 -40 29.5 -66t68.5 -26q52 0 93 54l105 -53q-74 -106 -200 -106q-111 0 -160 85q-55 -85 -164 -85q-97 0 -161 62.5t-64 158.5q0 97 63 161.5t160 64.5q113 0 170 -82q55 82 160 82q94 0 150.5 -59.5t56.5 -154.5zM668 255
q-5 37 -28 58.5t-59 21.5t-61 -22t-28 -58h176zM374 211q0 45 -31.5 76.5t-76.5 31.5q-44 0 -75 -32t-31 -76t31.5 -75t75.5 -31t75.5 31t31.5 75z" />
    <glyph glyph-name="Scaron" unicode="&#x160;" horiz-adv-x="497" 
d="M418 858l-139 -129h-54l-143 129l65 66l102 -104l105 104zM465 197q0 -95 -66.5 -154.5t-162.5 -59.5q-58 0 -112 26.5t-91 72.5l85 118q48 -90 117 -90q35 0 61 23.5t26 58.5q0 32 -28 55q-12 10 -72 36q-79 35 -121.5 79.5t-42.5 118.5q0 89 64.5 145.5t154.5 56.5
q112 0 184 -87l-93 -110q-22 34 -43 52.5t-53 18.5q-29 0 -50 -18.5t-21 -47.5q0 -32 27 -53.5t66 -37.5t78 -37t66 -63t27 -103z" />
    <glyph glyph-name="scaron" unicode="&#x161;" horiz-adv-x="371" 
d="M358 618l-139 -129h-54l-143 129l65 66l102 -104l105 104zM349 349l-89 -49q-29 39 -59 39q-14 0 -25 -9t-11 -23t18.5 -25.5t45 -21.5t53 -24t45 -40.5t18.5 -63.5q0 -65 -46 -104.5t-112 -39.5q-112 0 -162 85l99 58q14 -22 27.5 -32.5t34.5 -10.5q15 0 26 9.5t11 23.5
q0 18 -28 33t-62 26t-62 42t-28 78q0 65 45 100t112 35q102 0 149 -86z" />
    <glyph glyph-name="Ydieresis" unicode="&#x178;" horiz-adv-x="516" 
d="M431 801q0 -28 -20 -48t-48 -20t-48 20t-20 48t20 48t48 20q29 0 48.5 -19.5t19.5 -48.5zM221 801q0 -28 -20 -48t-48 -20t-48 20t-20 48t20 48t48 20q29 0 48.5 -19.5t19.5 -48.5zM527 667l-192 -357v-310h-144v305l-202 362h160q5 -10 28.5 -54t33 -62.5t25.5 -52.5
t27 -63q6 19 40 93l65 139h159z" />
    <glyph glyph-name="Zcaron" unicode="&#x17d;" horiz-adv-x="536" 
d="M418 858l-139 -129h-54l-143 129l65 66l102 -104l105 104zM515 0h-490v42l275 503h-259v122h463v-33l-279 -513h290v-121z" />
    <glyph glyph-name="zcaron" unicode="&#x17e;" horiz-adv-x="423" 
d="M378 618l-139 -129h-54l-143 129l65 66l102 -104l105 104zM411 406l-190 -293h185v-113h-388v18l182 292h-168v113h379v-17z" />
    <glyph glyph-name="florin" unicode="&#x192;" horiz-adv-x="567" 
d="M492 704l-23 -120q-11 26 -40 26q-32 0 -40 -43l-21 -114h79l-19 -91h-76l-69 -392q-8 -47 -42 -75t-82 -28q-45 0 -96 28l22 120q19 -26 42 -26q31 0 39 40l58 333h-58l18 91h57l30 172q8 48 42 78t82 30q39 0 97 -29z" />
    <glyph glyph-name="circumflex" unicode="&#x2c6;" 
d="M418 551l-64 -66l-105 105l-102 -105l-65 66l143 130h54z" />
    <glyph glyph-name="caron" unicode="&#x2c7;" 
d="M418 618l-139 -129h-54l-143 129l65 66l102 -104l105 104z" />
    <glyph glyph-name="breve" unicode="&#x2d8;" 
d="M412 625q-7 -63 -52.5 -101.5t-109.5 -38.5q-63 0 -110.5 39t-51.5 101h88q12 -58 74 -58q60 0 74 58h88z" />
    <glyph glyph-name="dotaccent" unicode="&#x2d9;" 
d="M326 565q0 -31 -22 -53.5t-54 -22.5t-54 22.5t-22 53.5t22 53.5t54 22.5t54 -22.5t22 -53.5z" />
    <glyph glyph-name="ring" unicode="&#x2da;" 
d="M360 595q0 -45 -32.5 -77.5t-77.5 -32.5t-77.5 32.5t-32.5 77.5q0 46 32 78t78 32t78 -32t32 -78zM297 595q0 20 -14 34t-33 14t-33 -14t-14 -34q0 -19 13.5 -33t33.5 -14t33.5 14t13.5 33z" />
    <glyph glyph-name="ogonek" unicode="&#x2db;" 
d="M362 -99l-15 -69q-34 -16 -67 -16q-35 0 -62 21t-27 55q0 59 70 108h62q-52 -38 -52 -71q0 -18 13 -30t31 -12q27 0 47 14z" />
    <glyph glyph-name="tilde" unicode="&#x2dc;" 
d="M436 599q-39 -110 -114 -110q-30 0 -77 24t-65 24q-11 0 -20.5 -8.5t-13 -14.5t-10.5 -20l-72 22q18 51 43 81t69 30q30 0 77 -23.5t66 -23.5q12 0 21.5 8.5t13.5 16t11 21.5z" />
    <glyph glyph-name="hungarumlaut" unicode="&#x2dd;" 
d="M476 635l-106 -150l-74 30l74 165zM284 635l-105 -150l-74 30l74 165z" />
    <glyph glyph-name="Delta" unicode="&#x394;" horiz-adv-x="667" 
d="M650 0h-633l245 667h139zM464 116l-132 394l-132 -394h264z" />
    <glyph glyph-name="Omega" unicode="&#x3a9;" horiz-adv-x="667" 
d="M638 0h-269v102q135 75 135 250q0 85 -44.5 150.5t-125.5 65.5q-82 0 -127 -65.5t-45 -151.5q0 -174 137 -249v-102h-270v115h137q-72 45 -105 105.5t-33 145.5q0 135 85.5 226t219.5 91q135 0 220 -91t85 -226q0 -168 -137 -251h137v-115z" />
    <glyph glyph-name="pi" unicode="&#x3c0;" horiz-adv-x="664" 
d="M627 366h-76v-366h-128v366h-180v-366h-129v366h-76v115h589v-115z" />
    <glyph glyph-name="endash" unicode="&#x2013;" 
d="M467 281h-434v118h434v-118z" />
    <glyph glyph-name="emdash" unicode="&#x2014;" horiz-adv-x="619" 
d="M619 167h-619v116h619v-116z" />
    <glyph glyph-name="quoteleft" unicode="&#x2018;" horiz-adv-x="285" 
d="M225 667l-46 -266h-139l101 266h84z" />
    <glyph glyph-name="quoteright" unicode="&#x2019;" horiz-adv-x="285" 
d="M245 667l-101 -266h-84l47 266h138z" />
    <glyph glyph-name="quotesinglbase" unicode="&#x201a;" horiz-adv-x="285" 
d="M245 136l-101 -265h-84l47 265h138z" />
    <glyph glyph-name="quotedblleft" unicode="&#x201c;" horiz-adv-x="491" 
d="M431 667l-47 -266h-139l101 266h85zM225 667l-46 -266h-139l101 266h84z" />
    <glyph glyph-name="quotedblright" unicode="&#x201d;" horiz-adv-x="491" 
d="M451 667l-101 -266h-85l47 266h139zM245 667l-101 -266h-84l47 266h138z" />
    <glyph glyph-name="quotedblbase" unicode="&#x201e;" horiz-adv-x="491" 
d="M451 136l-101 -265h-85l47 265h139zM245 136l-101 -265h-84l47 265h138z" />
    <glyph glyph-name="dagger" unicode="&#x2020;" horiz-adv-x="567" 
d="M510 464h-160v-631h-133v631h-160v100h160v165h133v-165h160v-100z" />
    <glyph glyph-name="daggerdbl" unicode="&#x2021;" horiz-adv-x="567" 
d="M510 149h-160v-316h-133v316h-160v100h160v215h-160v100h160v165h133v-165h160v-100h-160v-215h160v-100z" />
    <glyph glyph-name="bullet" unicode="&#x2022;" horiz-adv-x="667" 
d="M471 340q0 -57 -40 -98.5t-97 -41.5t-97.5 41.5t-40.5 98.5t40.5 98.5t97.5 41.5t97 -41.5t40 -98.5z" />
    <glyph glyph-name="ellipsis" unicode="&#x2026;" horiz-adv-x="940" 
d="M865 68q0 -34 -24 -58t-58 -24t-58 24t-24 58t24 58t58 24t58 -24t24 -58zM552 68q0 -34 -24 -58t-58 -24t-58 24t-24 58t24 58t58 24t58 -24t24 -58zM239 68q0 -34 -24 -58t-58 -24t-58 24t-24 58t24 58t58 24t58 -24t24 -58z" />
    <glyph glyph-name="perthousand" unicode="&#x2030;" horiz-adv-x="915" 
d="M875 168q0 -85 -18 -121q-12 -26 -37 -40t-54 -14q-64 0 -92 54q-18 36 -18 121q0 28 1.5 48.5t8 45.5t18 40.5t32.5 26.5t50 11q58 0 86 -45q23 -36 23 -127zM603 168q0 -85 -18 -121q-12 -26 -37 -40t-54 -14q-64 0 -92 54q-18 36 -18 121q0 28 1.5 48.5t8 45.5
t18 40.5t32.5 26.5t50 11q58 0 86 -45q23 -36 23 -127zM480 667l-266 -667h-51l266 667h51zM259 501q0 -85 -18 -120q-28 -54 -91 -54q-29 0 -50 11t-32.5 27t-18 41.5t-8 46t-1.5 48.5t1.5 48.5t8 45.5t18 40.5t32.5 26.5t50 11q58 0 86 -45q23 -36 23 -127zM804 171v15v20
t-1 19.5t-3.5 21t-6.5 16t-11 12.5t-16 4t-16 -4t-11.5 -13t-7 -16t-3.5 -21.5t-1 -20v-20.5v-15q0 -92 17 -107q9 -8 22 -8t21 8q17 15 17 109zM532 171v15v20t-1 19.5t-3.5 21t-6.5 16t-11 12.5t-16 4t-16 -4t-11.5 -13t-7 -16t-3.5 -21.5t-1 -20v-20.5v-15q0 -92 17 -107
q9 -8 22 -8t21 8q17 15 17 109zM188 504v15v20t-1 19.5t-3.5 21t-6.5 16.5t-11 13t-16 4t-16 -4t-11.5 -13t-7 -16.5t-3.5 -22t-1 -20v-20.5v-15q0 -92 17 -107q9 -8 22 -8t21 8q17 15 17 109z" />
    <glyph glyph-name="guilsinglleft" unicode="&#x2039;" horiz-adv-x="305" 
d="M258 75l-67 -53l-158 203l158 199l67 -53l-115 -146z" />
    <glyph glyph-name="guilsinglright" unicode="&#x203a;" horiz-adv-x="305" 
d="M271 225l-160 -203l-64 53l114 150l-114 146l70 53z" />
    <glyph glyph-name="fraction" unicode="&#x2044;" horiz-adv-x="126" 
d="M226 667l-266 -667h-60l266 667h60z" />
    <glyph glyph-name="trademark" unicode="&#x2122;" horiz-adv-x="698" 
d="M680 287h-91l-23 226l-72 -226h-57l-67 226l-26 -226h-90l53 380h95l64 -215l69 215h95zM241 587h-78v-300h-93v300h-76v80h247v-80z" />
    <glyph glyph-name="partialdiff" unicode="&#x2202;" 
d="M486 269q0 -120 -64 -199t-181 -79q-96 0 -164 66.5t-68 162.5q0 89 59.5 150.5t147.5 61.5q76 0 122 -46q-63 148 -282 167l16 112q90 -10 160 -34t127 -73q127 -109 127 -289zM347 217q0 46 -29 77t-75 31q-44 0 -72.5 -31.5t-28.5 -76.5q0 -46 28.5 -78.5t73.5 -32.5
t74 32.5t29 78.5z" />
    <glyph glyph-name="product" unicode="&#x220f;" horiz-adv-x="732" 
d="M692 -250h-291v115h79v770h-228v-770h79v-115h-291v115h83v770h-83v115h652v-115h-82v-770h82v-115z" />
    <glyph glyph-name="summation" unicode="&#x2211;" horiz-adv-x="667" 
d="M629 -250h-608v128l244 389l-244 355v128h598v-246h-115l-13 131h-325l249 -368l-250 -402h335l8 134h121v-249z" />
    <glyph glyph-name="minus" unicode="&#x2212;" 
d="M467 281h-434v118h434v-118z" />
    <glyph glyph-name="radical" unicode="&#x221a;" horiz-adv-x="667" 
d="M667 711h-179l-167 -711h-170l-57 271h-94v116h200q32 -145 32 -232h11q10 145 44 292l89 380h291v-116z" />
    <glyph glyph-name="infinity" unicode="&#x221e;" horiz-adv-x="667" 
d="M650 340q0 -71 -46 -117t-116 -46q-85 0 -151 79q-74 -79 -157 -79q-72 0 -117.5 45.5t-45.5 117.5q0 70 45.5 116t116.5 46q80 0 152 -79q67 79 156 79q71 0 117 -45.5t46 -116.5zM518 340q0 20 -15.5 33.5t-35.5 13.5q-36 0 -70 -48q35 -47 70 -47q21 0 36 13.5
t15 34.5zM270 339q-35 48 -70 48q-21 0 -36 -13.5t-15 -34.5q0 -20 15.5 -33.5t35.5 -13.5q35 0 70 47z" />
    <glyph glyph-name="integral" unicode="&#x222b;" 
d="M452 740l-23 -115q-33 11 -56 11q-57 0 -57 -71v-62v-67v-414q0 -65 -1 -97q-8 -175 -175 -175q-42 0 -92 10l23 115q33 -11 56 -11q35 0 46 20t11 58v591q0 71 11 110q16 54 60.5 80.5t104.5 26.5q32 0 92 -10z" />
    <glyph glyph-name="approxequal" unicode="&#x2248;" 
d="M493 484q-29 -62 -65 -97.5t-94 -35.5q-32 0 -92 25t-91 25q-20 0 -34.5 -9.5t-21.5 -20t-18 -31.5l-70 46q13 32 24 52.5t29 42.5t42.5 33t55.5 11q34 0 96 -25t94 -25q26 0 42 12.5t30 38.5zM493 282q-28 -63 -64 -98t-95 -35q-33 0 -92.5 25t-90.5 25q-20 0 -34.5 -9
t-21.5 -20t-18 -32l-70 46q13 32 24 52.5t29 42.5t42.5 33t55.5 11q34 0 96 -25t95 -25q45 0 71 51z" />
    <glyph glyph-name="notequal" unicode="&#x2260;" 
d="M467 173h-241l-49 -97h-101l48 97h-90v115h142l34 67h-176v115h229l54 108h101l-54 -108h103v-115h-155l-34 -67h189v-115z" />
    <glyph glyph-name="lessequal" unicode="&#x2264;" 
d="M467 145l-434 208v107l434 207v-119l-298 -142l297 -141zM467 2h-434v115h434v-115z" />
    <glyph glyph-name="greaterequal" unicode="&#x2265;" 
d="M467 352l-434 -207v120l298 142l-297 141l-1 119l434 -207v-108zM467 2h-434v115h434v-115z" />
    <glyph glyph-name="lozenge" unicode="&#x25ca;" horiz-adv-x="667" 
d="M593 334l-260 -360l-259 360l259 359zM443 334l-110 150l-109 -150l109 -151z" />
    <glyph glyph-name="apple" unicode="&#xf8ff;" horiz-adv-x="621" 
d="M583 45q-101 -62 -200 -62q-120 0 -211.5 68t-121.5 183h-66l30 71h25q-1 8 -1 24q0 14 2 42h-58l31 72h43q35 111 129.5 175.5t213.5 64.5q102 0 184 -51v-172q-85 97 -182 97q-58 0 -108.5 -31t-79.5 -83h223l-31 -72h-217q-3 -19 -3 -38q0 -10 2 -28h186l-30 -71h-135
q27 -56 79 -90t114 -34q104 0 182 99v-164z" />
    <glyph glyph-name="fi" unicode="&#xfb01;" horiz-adv-x="528" 
d="M471 598q0 -34 -24.5 -58.5t-58.5 -24.5q-35 0 -59.5 24.5t-24.5 58.5t24.5 58.5t58.5 24.5q35 0 59.5 -24.5t24.5 -58.5zM452 0h-129v423h129v-423zM264 313h-70v-313h-130v313h-55v110h55v157q0 75 32 112q36 41 96 41q33 0 72 -12v-120q-14 16 -32 16q-38 0 -38 -69
v-125h70v-110z" />
    <glyph glyph-name="fl" unicode="&#xfb02;" horiz-adv-x="510" 
d="M452 0h-129v729h129v-729zM264 313h-70v-313h-130v313h-55v110h55v157q0 75 32 112q36 41 96 41q30 0 72 -11v-121q-14 16 -32 16q-38 0 -38 -69v-125h70v-110z" />
    </font>
</defs>
</svg>
